<?xml version="1.0" encoding="utf-8"?>
<!-- Generator: Adobe Illustrator 26.5.0, SVG Export Plug-In . SVG Version: 6.00 Build 0)  -->
<svg version="1.1" id="Слой_1" xmlns="http://www.w3.org/2000/svg" xmlns:xlink="http://www.w3.org/1999/xlink" x="0px" y="0px"
	 viewBox="0 0 22 20" style="enable-background:new 0 0 22 20;" xml:space="preserve">
<path class="st0" d="M18.6,19.6c-0.3,0.3-0.6,0.4-1,0.4c-0.4,0-0.7-0.1-1-0.4c-0.6-0.6-0.6-1.5,0-2c3.1-3.1,3.1-8.2,0-11.4
	C13.5,3,8.4,3,5.2,6.2L4.7,6.7h3.4c0.8,0,1.4,0.6,1.4,1.4c0,0.8-0.6,1.4-1.4,1.4H1.4C0.6,9.5,0,8.9,0,8.1V1.4C0,0.6,0.6,0,1.4,0
	c0.8,0,1.4,0.6,1.4,1.4v3.1l0.4-0.4c4.2-4.2,11.2-4.2,15.4,0S22.9,15.3,18.6,19.6z"/>
</svg>
