<?xml version="1.0" encoding="utf-8"?>
<!-- Generator: Adobe Illustrator 26.5.0, SVG Export Plug-In . SVG Version: 6.00 Build 0)  -->
<svg version="1.1" id="Слой_1" xmlns="http://www.w3.org/2000/svg" xmlns:xlink="http://www.w3.org/1999/xlink" x="0px" y="0px"
	 viewBox="0 0 22 20" style="enable-background:new 0 0 22 20;" xml:space="preserve">
<path class="st0" d="M3.2,19.6c0.3,0.3,0.6,0.4,1,0.4c0.4,0,0.7-0.1,1-0.4c0.6-0.6,0.6-1.5,0-2c-3.1-3.1-3.1-8.2,0-11.4
	C8.3,3,13.4,3,16.6,6.2l0.5,0.5h-3.4c-0.8,0-1.4,0.6-1.4,1.4c0,0.8,0.6,1.4,1.4,1.4h6.7c0.8,0,1.4-0.6,1.4-1.4V1.4
	c0-0.8-0.6-1.4-1.4-1.4C19.6,0,19,0.6,19,1.4v3.1l-0.4-0.4c-4.2-4.2-11.2-4.2-15.4,0S-1.1,15.3,3.2,19.6z"/>
</svg>
