<?xml version="1.0" encoding="utf-8"?>
<svg version="1.1" id="Слой_1" xmlns="http://www.w3.org/2000/svg" x="0px" y="0px"
	 viewBox="0 0 22 19.8" style="enable-background:new 0 0 22 19.8;" xml:space="preserve">
<path class="st0" d="M20.6,0H1.4C0.6,0,0,0.6,0,1.4v17c0,0.8,0.6,1.4,1.4,1.4h19.1c0.8,0,1.4-0.6,1.4-1.4v-17C22,0.6,21.4,0,20.6,0z
	 M19.1,17H2.9v-0.7l3.1-3.1l1.4,1.4c0.6,0.6,1.5,0.6,2,0l5.7-5.7l4,4V17z M19.1,8.9l-3-3c-0.6-0.6-1.5-0.6-2,0l-5.7,5.7L7,10.1
	c-0.6-0.6-1.5-0.6-2,0l-2.1,2.1V2.9h16.3V8.9z"/>
<path class="st0" d="M7.8,8.2C6.8,8.2,6,7.4,6,6.4c0-1,0.8-1.8,1.8-1.8c1,0,1.8,0.8,1.8,1.8C9.6,7.4,8.8,8.2,7.8,8.2z"/>
</svg>
