<?xml version="1.0" encoding="utf-8"?>
<!-- Generator: Adobe Illustrator 26.5.0, SVG Export Plug-In . SVG Version: 6.00 Build 0)  -->
<svg version="1.1" id="Слой_1" xmlns="http://www.w3.org/2000/svg" xmlns:xlink="http://www.w3.org/1999/xlink" x="0px" y="0px"
	 viewBox="0 0 20 23" style="enable-background:new 0 0 20 23;" xml:space="preserve">
<path class="st0" d="M20,1.5V4c0,0.8-0.7,1.5-1.5,1.5C17.7,5.5,17,4.8,17,4V3h-5.5v17h1.3c0.8,0,1.5,0.7,1.5,1.5S13.7,23,12.8,23
	H7.2c-0.8,0-1.5-0.7-1.5-1.5S6.3,20,7.2,20h1.3V3H3v1c0,0.8-0.7,1.5-1.5,1.5C0.7,5.5,0,4.8,0,4V1.5C0,0.7,0.7,0,1.5,0h17
	C19.3,0,20,0.7,20,1.5z"/>
</svg>
