<?xml version="1.0" encoding="utf-8"?>
<svg version="1.1" id="Слой_1" xmlns="http://www.w3.org/2000/svg" x="0px" y="0px"
	 viewBox="0 0 25.8 13.9" style="enable-background:new 0 0 25.8 13.9;" xml:space="preserve">
<path class="st0" d="M12.3,1.7V3c0,0.9-0.8,1.7-1.7,1.7C9.8,4.7,9.2,4.1,9,3.4H7.8v7.2c0.8,0.1,1.5,0.8,1.5,1.7
	c0,0.9-0.8,1.7-1.7,1.7h-3c-0.9,0-1.7-0.8-1.7-1.7c0-0.9,0.7-1.6,1.5-1.7V3.4H3.3C3.2,4.1,2.5,4.7,1.7,4.7C0.8,4.7,0,3.9,0,3V1.7
	C0,0.8,0.8,0,1.7,0h9C11.6,0,12.3,0.8,12.3,1.7z"/>
<path class="st0" d="M25.8,1.7V3c0,0.9-0.8,1.7-1.7,1.7c-0.8,0-1.5-0.6-1.6-1.3h-1.2v7.2c0.8,0.1,1.5,0.8,1.5,1.7
	c0,0.9-0.8,1.7-1.7,1.7h-3c-0.9,0-1.7-0.8-1.7-1.7c0-0.9,0.7-1.6,1.5-1.7V3.4h-1.2c-0.2,0.8-0.8,1.3-1.6,1.3c-0.9,0-1.7-0.8-1.7-1.7
	V1.7c0-0.9,0.8-1.7,1.7-1.7h9C25,0,25.8,0.8,25.8,1.7z"/>
</svg>
