<svg xmlns="http://www.w3.org/2000/svg" xmlns:xlink="http://www.w3.org/1999/xlink"><defs><symbol viewBox="0 0 22 20" id="arrow-left"><path class="st0" d="M18.6 19.6c-.3.3-.6.4-1 .4s-.7-.1-1-.4c-.6-.6-.6-1.5 0-2 3.1-3.1 3.1-8.2 0-11.4C13.5 3 8.4 3 5.2 6.2l-.5.5h3.4c.8 0 1.4.6 1.4 1.4 0 .8-.6 1.4-1.4 1.4H1.4C.6 9.5 0 8.9 0 8.1V1.4C0 .6.6 0 1.4 0c.8 0 1.4.6 1.4 1.4v3.1l.4-.4c4.2-4.2 11.2-4.2 15.4 0s4.3 11.2 0 15.5z" /></symbol><symbol viewBox="0 0 22 20" id="arrow-right"><path class="st0" d="M3.2 19.6c.3.3.6.4 1 .4s.7-.1 1-.4c.6-.6.6-1.5 0-2-3.1-3.1-3.1-8.2 0-11.4C8.3 3 13.4 3 16.6 6.2l.5.5h-3.4c-.8 0-1.4.6-1.4 1.4 0 .8.6 1.4 1.4 1.4h6.7c.8 0 1.4-.6 1.4-1.4V1.4c0-.8-.6-1.4-1.4-1.4-.8 0-1.4.6-1.4 1.4v3.1l-.4-.4C14.4-.1 7.4-.1 3.2 4.1s-4.3 11.2 0 15.5z" /></symbol><symbol viewBox="0 0 22 19.8" id="img"><path class="st0" d="M20.6 0H1.4C.6 0 0 .6 0 1.4v17c0 .8.6 1.4 1.4 1.4h19.1c.8 0 1.4-.6 1.4-1.4v-17C22 .6 21.4 0 20.6 0zm-1.5 17H2.9v-.7L6 13.2l1.4 1.4c.6.6 1.5.6 2 0l5.7-5.7 4 4V17zm0-8.1l-3-3c-.6-.6-1.5-.6-2 0l-5.7 5.7L7 10.1c-.6-.6-1.5-.6-2 0l-2.1 2.1V2.9h16.3v6z" /><path class="st0" d="M7.8 8.2c-1 0-1.8-.8-1.8-1.8s.8-1.8 1.8-1.8 1.8.8 1.8 1.8-.8 1.8-1.8 1.8z" /></symbol><symbol viewBox="0 0 20 23" id="t"><path class="st0" d="M20 1.5V4c0 .8-.7 1.5-1.5 1.5S17 4.8 17 4V3h-5.5v17h1.3c.8 0 1.5.7 1.5 1.5s-.6 1.5-1.5 1.5H7.2c-.8 0-1.5-.7-1.5-1.5S6.3 20 7.2 20h1.3V3H3v1c0 .8-.7 1.5-1.5 1.5S0 4.8 0 4V1.5C0 .7.7 0 1.5 0h17c.8 0 1.5.7 1.5 1.5z" /></symbol><symbol viewBox="0 0 25.8 13.9" id="tt"><path class="st0" d="M12.3 1.7V3c0 .9-.8 1.7-1.7 1.7-.8 0-1.4-.6-1.6-1.3H7.8v7.2c.8.1 1.5.8 1.5 1.7 0 .9-.8 1.7-1.7 1.7h-3c-.9 0-1.7-.8-1.7-1.7 0-.9.7-1.6 1.5-1.7V3.4H3.3c-.1.7-.8 1.3-1.6 1.3C.8 4.7 0 3.9 0 3V1.7C0 .8.8 0 1.7 0h9c.9 0 1.6.8 1.6 1.7zM25.8 1.7V3c0 .9-.8 1.7-1.7 1.7-.8 0-1.5-.6-1.6-1.3h-1.2v7.2c.8.1 1.5.8 1.5 1.7 0 .9-.8 1.7-1.7 1.7h-3c-.9 0-1.7-.8-1.7-1.7 0-.9.7-1.6 1.5-1.7V3.4h-1.2c-.2.8-.8 1.3-1.6 1.3-.9 0-1.7-.8-1.7-1.7V1.7c0-.9.8-1.7 1.7-1.7h9c.9 0 1.7.8 1.7 1.7z" /></symbol></defs></svg>